<svg width="178" height="135" viewBox="0 0 178 135" fill="none" xmlns="http://www.w3.org/2000/svg">
<path d="M174.628 44.8328C175.984 43.7551 178 44.7633 178 46.4668V117.562C178 126.775 170.525 134.25 161.312 134.25H16.6875C7.47461 134.25 0 126.775 0 117.562V46.5016C0 44.7633 1.98164 43.7898 3.37227 44.8676C11.1598 50.9168 21.4852 58.6 56.9461 84.3613C64.2816 89.7152 76.6582 100.979 89 100.91C101.411 101.014 114.031 89.5066 121.089 84.3613C156.55 58.6 166.84 50.882 174.628 44.8328ZM89 89.75C97.0656 89.8891 108.677 79.5984 114.518 75.357C160.652 41.8777 164.163 38.9574 174.802 30.6137C176.818 29.0492 178 26.6156 178 24.043V17.4375C178 8.22461 170.525 0.75 161.312 0.75H16.6875C7.47461 0.75 0 8.22461 0 17.4375V24.043C0 26.6156 1.18203 29.0145 3.19844 30.6137C13.8367 38.9227 17.3481 41.8777 63.482 75.357C69.3227 79.5984 80.9344 89.8891 89 89.75Z" fill="black"/>
</svg>
