<svg width="238" height="238" viewBox="0 0 238 238" fill="none" xmlns="http://www.w3.org/2000/svg">
<path d="M53.7103 237.433H4.48446V78.9114H53.7103V237.433ZM29.0709 57.2876C13.3301 57.2876 0.5625 44.2497 0.5625 28.5089C0.5625 20.948 3.56606 13.6968 8.91242 8.3504C14.2588 3.00404 21.51 0.000488281 29.0709 0.000488281C36.6318 0.000488281 43.883 3.00404 49.2294 8.3504C54.5757 13.6968 57.5793 20.948 57.5793 28.5089C57.5793 44.2497 44.8064 57.2876 29.0709 57.2876ZM237.947 237.433H188.827V160.265C188.827 141.875 188.456 118.29 163.234 118.29C137.64 118.29 133.718 138.271 133.718 158.941V237.433H84.5454V78.9114H131.757V100.535H132.446C139.018 88.0803 155.072 74.9364 179.022 74.9364C228.842 74.9364 238 107.743 238 150.355V237.433H237.947Z" fill="black"/>
</svg>
